<svg viewBox="0 0 512 512" fill="none" xmlns="http://www.w3.org/2000/svg">
<path d="M308.51 450H80.59C76.6117 450 72.7964 448.42 69.9834 445.607C67.1703 442.793 65.59 438.978 65.59 435V143.93C65.59 139.952 67.1703 136.136 69.9834 133.323C72.7964 130.51 76.6117 128.93 80.59 128.93H308.51C312.488 128.93 316.304 130.51 319.117 133.323C321.93 136.136 323.51 139.952 323.51 143.93V435C323.51 438.978 321.93 442.793 319.117 445.607C316.304 448.42 312.488 450 308.51 450ZM95.59 420H293.51V158.93H95.59V420Z" fill="white"/>
<path d="M389.44 369.07H308.51C304.532 369.07 300.716 367.49 297.903 364.677C295.09 361.864 293.51 358.048 293.51 354.07C293.51 350.092 295.09 346.276 297.903 343.463C300.716 340.65 304.532 339.07 308.51 339.07H374.44V78H176.52V143.92C176.52 147.898 174.94 151.714 172.127 154.527C169.314 157.34 165.498 158.92 161.52 158.92C157.542 158.92 153.726 157.34 150.913 154.527C148.1 151.714 146.52 147.898 146.52 143.92V63C146.52 59.0218 148.1 55.2064 150.913 52.3934C153.726 49.5804 157.542 48 161.52 48H389.44C393.418 48 397.234 49.5804 400.047 52.3934C402.86 55.2064 404.44 59.0218 404.44 63V354.07C404.44 358.048 402.86 361.864 400.047 364.677C397.234 367.49 393.418 369.07 389.44 369.07Z" fill="white"/>
</svg>
