<svg viewBox="0 0 46 46" fill="none" xmlns="http://www.w3.org/2000/svg">
<path d="M32.8995 30.0711L25.8284 23L32.8995 15.9289C33.6801 15.1483 33.6801 13.8811 32.8995 13.1005C32.1188 12.3199 30.8517 12.3199 30.0711 13.1005L23 20.1716L15.9289 13.1005C15.1483 12.3199 13.8812 12.3199 13.1005 13.1005C12.3199 13.8811 12.3199 15.1483 13.1005 15.9289L20.1716 23L13.1005 30.0711C12.3199 30.8517 12.3199 32.1188 13.1005 32.8995C13.8812 33.6801 15.1483 33.6801 15.9289 32.8995L23 25.8284L30.0711 32.8995C30.8517 33.6801 32.1188 33.6801 32.8995 32.8995C33.6801 32.1188 33.6801 30.8517 32.8995 30.0711Z" fill="black"/>
</svg>
