<svg width="124" height="124" viewBox="0 0 124 124" fill="none" xmlns="http://www.w3.org/2000/svg">
<path d="M62 124C96.2 124 124 96.2 124 62C124 27.8 96.2 0 62 0C27.8 0 0 27.8 0 62C0 96.2 27.8 124 62 124ZM14 86.7L39.2 86.5C42 96.6 46.7 106.4 53.1 115.2C36 112.4 21.7 101.5 14 86.7ZM45.6 45H77C79.3 56 79.3 67.3 77.2 78.3L45.6 78.5C43.3 67.4 43.3 56 45.6 45ZM61.3 112.9C55 104.8 50.4 95.9 47.6 86.5L75.1 86.3C72.2 95.7 67.6 104.7 61.3 112.9ZM69.3 115.5C75.9 106.5 80.6 96.6 83.4 86.2L110.3 86C102.5 101.7 87.3 113 69.3 115.5ZM116 62C116 67.6 115.1 73 113.6 78L85.3 78.2C87.3 67.2 87.2 56 85.1 45H113.2C115 50.3 116 56.1 116 62ZM109.8 37H83.2C80.3 27 75.7 17.3 69.3 8.5C87 10.9 101.9 21.8 109.8 37ZM74.9 37H47.7C50.6 27.8 55.1 19.1 61.3 11.1C67.5 19.1 72 27.8 74.9 37ZM53.1 8.8C46.8 17.5 42.2 27 39.4 37H14.2C21.9 22.3 36.1 11.6 53.1 8.8ZM37.5 45C35.4 56.1 35.4 67.4 37.4 78.5L10.7 78.7C8.9 73.4 8 67.8 8 62C8 56.1 9 50.3 10.8 45H37.5Z" fill="white"/>
</svg>
